<?xml version="1.0" encoding="utf-8"?>
<!-- Generator: Adobe Illustrator 24.0.2, SVG Export Plug-In . SVG Version: 6.00 Build 0)  -->
<svg version="1.1" id="Layer_1" xmlns="http://www.w3.org/2000/svg" xmlns:xlink="http://www.w3.org/1999/xlink" x="0px" y="0px"
	 viewBox="0 0 103 24" style="enable-background:new 0 0 103 24;" xml:space="preserve">
<style type="text/css">
	.st0{fill:#2D2D2D;}
</style>
<g id="Header">
	<g id="Frame_1449">
		<g id="logo">
			<path class="st0" d="M18.4,15.9l0,8.1L0.1,24l0-0.5c1-0.7,1.5-2.1,1.5-4.2L1.5,5C1.5,2.9,1,1.5,0,0.8l0-0.5l9,0l0,0.5
				C8,1.5,7.5,2.9,7.5,5l0,14.4c0,1.2,0.3,2.1,0.7,2.7c0.5,0.5,1.3,0.8,2.5,0.8h0.1c1.8,0,3.3-0.6,4.5-1.9c1.2-1.3,2-2.9,2.6-5
				L18.4,15.9z"/>
			<path class="st0" d="M39.2,17.6l0,6.3l-17.7,0l0-0.5c1-0.7,1.5-2.1,1.5-4.2l0-14.3c0-2.1-0.5-3.5-1.5-4.1l0-0.5l16.8,0l0,6.3
				l-0.5,0c-0.6-1.5-1.6-2.8-2.7-3.7c-1.2-0.9-2.6-1.4-4.1-1.4l-1.9,0l0,10l1.5-0.1c1-0.1,1.8-0.5,2.4-1.1c0.6-0.6,1.2-1.5,1.7-2.5
				l0.5,0l0,8.3l-0.5,0c-0.5-1-1.1-1.8-1.7-2.4c-0.6-0.6-1.4-1-2.4-1.1L29,12.3l0,7c0,1.2,0.2,2.1,0.7,2.6c0.4,0.5,1.1,0.8,2.1,0.8
				h0.1c1.6,0,2.9-0.5,4.1-1.4c1.2-1,2.1-2.2,2.7-3.7L39.2,17.6z"/>
			<path class="st0" d="M75.9,19.1c0,2,0.5,3.4,1.5,4.1l0,0.5l-9,0l0-0.5c1-0.7,1.5-2.1,1.5-4.2l0-14.3c0-2.1-0.5-3.5-1.5-4.1l0-0.5
				l9,0l0,0.5c-1,0.7-1.5,2.1-1.5,4.2L75.9,19.1z"/>
			<path class="st0" d="M95.8,22.9c-1.1-0.8-2.2-2-3.5-3.7c-0.3-0.4-0.6-0.8-0.9-1.3c-0.3-0.5-0.6-0.9-0.8-1.3
				c-0.2-0.4-0.5-0.9-0.9-1.6c-0.4-0.7-0.7-1.3-0.9-1.6l0-0.5c3-0.9,4.6-3,4.6-6.5c0-3.4-1.5-5.2-4.3-5.2l-0.8,0l0,17.8
				c0,2,0.5,3.4,1.5,4.1l0,0.5l-9,0l0-0.5c1-0.7,1.5-2,1.5-4.2l0-14.4c0-2.1-0.5-3.5-1.5-4.1l0-0.5l9.6,0c6.4,0,9.6,2.1,9.6,6.4
				c0,1.7-0.5,3.1-1.6,4c-1.1,0.9-2.3,1.6-3.8,1.9l1.4,2.1c2.6,3.8,5,6.5,7,8.1l-0.1,0.5c-1,0.6-2.2,1-3.4,1
				C98.1,24.1,96.9,23.7,95.8,22.9z"/>
			<path class="st0" d="M49.9,16.1l-0.6-1l-2,2.8c-2.1,2.9-4.1,4.7-6,5.4l0,0.5l7.8,0l0-0.5c-1.3-1.4-1.3-3.4,0.1-5.9L49.9,16.1z"/>
			<path class="st0" d="M61.2,18L56,10l2.5-3.9c1.8-2.8,3.8-4.6,6-5.4l0-0.5l-7.8,0l0,0.5c0.6,0.7,0.9,1.6,1,2.7
				c0,1.1-0.2,2.1-0.7,3l-1.5,2.9L53.4,6c-1.4-2.3-1.6-4.1-0.4-5.3l0-0.5l-11.5,0l0,0.5C42.1,1,42.6,1.4,43.2,2
				c0.6,0.6,1.1,1.2,1.5,1.8c0.4,0.5,0.9,1.3,1.5,2.2l7.7,11.9c0.7,1.1,1.2,2.2,1.3,3.1c0.1,1-0.2,1.7-0.8,2.3l0,0.5l11.9,0l0-0.5
				C64.6,22.6,63,20.8,61.2,18z"/>
		</g>
	</g>
</g>
</svg>
