<?xml version="1.0" encoding="utf-8"?>
<!-- Generator: Adobe Illustrator 24.0.2, SVG Export Plug-In . SVG Version: 6.00 Build 0)  -->
<svg version="1.1" id="Layer_1" xmlns="http://www.w3.org/2000/svg" xmlns:xlink="http://www.w3.org/1999/xlink" x="0px" y="0px"
	 viewBox="0 0 103 24" style="enable-background:new 0 0 103 24;" xml:space="preserve">
<style type="text/css">
	.st0{fill:#FFFFFF;}
</style>
<g id="Header">
	<g id="Frame_1449">
		<g id="logo">
			<path class="st0" d="M18.4,15.9V24H0.1v-0.5c1-0.7,1.5-2.1,1.5-4.2L1.5,5C1.5,2.9,1,1.5,0,0.8V0.3h9v0.5C8,1.5,7.5,2.9,7.5,5
				v14.4c0,1.2,0.3,2.1,0.7,2.7c0.5,0.5,1.3,0.8,2.5,0.8h0.1c1.8,0,3.3-0.6,4.5-1.9s2-2.9,2.6-5L18.4,15.9z"/>
			<path class="st0" d="M39.2,17.6v6.3H21.5v-0.5c1-0.7,1.5-2.1,1.5-4.2V4.9c0-2.1-0.5-3.5-1.5-4.1V0.3h16.8v6.3h-0.5
				c-0.6-1.5-1.6-2.8-2.7-3.7C33.9,2,32.5,1.5,31,1.5h-1.9v10l1.5-0.1c1-0.1,1.8-0.5,2.4-1.1c0.6-0.6,1.2-1.5,1.7-2.5h0.5v8.3h-0.5
				c-0.5-1-1.1-1.8-1.7-2.4c-0.6-0.6-1.4-1-2.4-1.1L29,12.3v7c0,1.2,0.2,2.1,0.7,2.6c0.4,0.5,1.1,0.8,2.1,0.8h0.1
				c1.6,0,2.9-0.5,4.1-1.4c1.2-1,2.1-2.2,2.7-3.7L39.2,17.6z"/>
			<path class="st0" d="M75.9,19.1c0,2,0.5,3.4,1.5,4.1v0.5h-9v-0.5c1-0.7,1.5-2.1,1.5-4.2V4.7c0-2.1-0.5-3.5-1.5-4.1V0.1h9v0.5
				c-1,0.7-1.5,2.1-1.5,4.2V19.1z"/>
			<path class="st0" d="M95.8,22.9c-1.1-0.8-2.2-2-3.5-3.7c-0.3-0.4-0.6-0.8-0.9-1.3s-0.6-0.9-0.8-1.3c-0.2-0.4-0.5-0.9-0.9-1.6
				c-0.4-0.7-0.7-1.3-0.9-1.6v-0.5c3-0.9,4.6-3,4.6-6.5c0-3.4-1.5-5.2-4.3-5.2h-0.8V19c0,2,0.5,3.4,1.5,4.1v0.5h-9v-0.5
				c1-0.7,1.5-2,1.5-4.2V4.5c0-2.1-0.5-3.5-1.5-4.1v-0.5h9.6c6.4,0,9.6,2.1,9.6,6.4c0,1.7-0.5,3.1-1.6,4c-1.1,0.9-2.3,1.6-3.8,1.9
				l1.4,2.1c2.6,3.8,5,6.5,7,8.1l-0.1,0.5c-1,0.6-2.2,1-3.4,1C98.1,24.1,96.9,23.7,95.8,22.9z"/>
			<path class="st0" d="M49.9,16.1l-0.6-1l-2,2.8c-2.1,2.9-4.1,4.7-6,5.4v0.5h7.8v-0.5c-1.3-1.4-1.3-3.4,0.1-5.9L49.9,16.1z"/>
			<path class="st0" d="M61.2,18L56,10l2.5-3.9c1.8-2.8,3.8-4.6,6-5.4V0.2h-7.8v0.5c0.6,0.7,0.9,1.6,1,2.7c0,1.1-0.2,2.1-0.7,3
				l-1.5,2.9L53.4,6C52,3.7,51.8,1.9,53,0.7V0.2H41.5v0.5C42.1,1,42.6,1.4,43.2,2c0.6,0.6,1.1,1.2,1.5,1.8c0.4,0.5,0.9,1.3,1.5,2.2
				l7.7,11.9c0.7,1.1,1.2,2.2,1.3,3.1c0.1,1-0.2,1.7-0.8,2.3v0.5h11.9v-0.5C64.6,22.6,63,20.8,61.2,18z"/>
		</g>
	</g>
</g>
</svg>
