<?xml version="1.0" encoding="utf-8"?>
<!-- Generator: Adobe Illustrator 24.0.2, SVG Export Plug-In . SVG Version: 6.00 Build 0)  -->
<svg version="1.1" id="Layer_1" xmlns="http://www.w3.org/2000/svg" xmlns:xlink="http://www.w3.org/1999/xlink" x="0px" y="0px"
	 viewBox="0 0 22 22" style="enable-background:new 0 0 22 22;" xml:space="preserve">
<style type="text/css">
	.st0{fill:#2D2D2D;}
</style>
<path class="st0" d="M11,0.5c-2.1,0-4.1,0.6-5.8,1.8C3.4,3.4,2.1,5.1,1.3,7c-0.8,1.9-1,4-0.6,6.1c0.4,2,1.4,3.9,2.9,5.4
	C5,19.9,6.9,20.9,9,21.3c2,0.4,4.1,0.2,6.1-0.6c1.9-0.8,3.6-2.1,4.7-3.9c1.2-1.7,1.8-3.8,1.8-5.8c0-2.8-1.1-5.5-3.1-7.4
	C16.5,1.6,13.8,0.5,11,0.5z M6.5,18.8v-1c0-0.6,0.2-1.2,0.7-1.6c0.4-0.4,1-0.7,1.6-0.7h4.5c0.6,0,1.2,0.2,1.6,0.7
	c0.4,0.4,0.7,1,0.7,1.6v1C14.1,19.6,12.6,20,11,20C9.4,20,7.9,19.6,6.5,18.8z M17,17.7c0-1-0.4-1.9-1.1-2.6
	c-0.7-0.7-1.6-1.1-2.6-1.1H8.8c-1,0-1.9,0.4-2.6,1.1C5.4,15.8,5,16.7,5,17.7c-1.4-1.2-2.3-2.8-2.8-4.6S1.9,9.5,2.6,7.8
	c0.6-1.7,1.8-3.2,3.3-4.2C7.4,2.5,9.2,2,11,2c1.8,0,3.6,0.6,5.1,1.6c1.5,1,2.7,2.5,3.3,4.2c0.6,1.7,0.8,3.6,0.3,5.3
	C19.3,14.9,18.4,16.5,17,17.7L17,17.7z"/>
<path class="st0" d="M11,12.6c-2.1,0-3.7-1.7-3.7-3.7S8.9,5.1,11,5.1c2.1,0,3.7,1.7,3.7,3.7S13.1,12.6,11,12.6z M11,6
	C9.5,6,8.2,7.3,8.2,8.8c0,1.5,1.3,2.8,2.8,2.8c1.5,0,2.8-1.3,2.8-2.8C13.8,7.3,12.5,6,11,6z"/>
</svg>
